<mxfile host="app.diagrams.net" agent="Mozilla/5.0 (Windows NT 10.0; Win64; x64) AppleWebKit/537.36 (KHTML, like Gecko) Chrome/128.0.0.0 Safari/537.36" version="26.2.8">
  <diagram name="Página-1" id="0baeC1T9_Wn-1TEpzrgX">
    <mxGraphModel dx="3740" dy="2719" grid="1" gridSize="10" guides="1" tooltips="1" connect="1" arrows="1" fold="1" page="1" pageScale="1" pageWidth="827" pageHeight="1169" math="0" shadow="0">
      <root>
        <mxCell id="0" />
        <mxCell id="1" parent="0" />
        <mxCell id="iyyX1s9_e3pjV-plWLvc-1" style="edgeStyle=orthogonalEdgeStyle;rounded=0;orthogonalLoop=1;jettySize=auto;html=1;strokeWidth=4;" parent="1" source="iA4XpVnBiFOq4aOnz0Fv-35" target="iA4XpVnBiFOq4aOnz0Fv-34" edge="1">
          <mxGeometry relative="1" as="geometry">
            <mxPoint x="660" y="70" as="sourcePoint" />
            <Array as="points">
              <mxPoint x="710" y="60" />
              <mxPoint x="710" y="60" />
            </Array>
          </mxGeometry>
        </mxCell>
        <mxCell id="iyyX1s9_e3pjV-plWLvc-2" value="&amp;lt;&amp;lt;HTTP&amp;gt;&amp;gt;" style="edgeLabel;html=1;align=left;verticalAlign=middle;resizable=0;points=[];fontSize=15;labelPosition=right;verticalLabelPosition=middle;" parent="iyyX1s9_e3pjV-plWLvc-1" vertex="1" connectable="0">
          <mxGeometry x="-0.1333" relative="1" as="geometry">
            <mxPoint x="10" as="offset" />
          </mxGeometry>
        </mxCell>
        <mxCell id="iA4XpVnBiFOq4aOnz0Fv-35" value="Computador:Browser" style="verticalAlign=top;align=left;spacingTop=8;spacingLeft=2;spacingRight=12;shape=cube;size=10;direction=south;fontStyle=4;html=1;whiteSpace=wrap;" parent="1" vertex="1">
          <mxGeometry x="-430" y="-130" width="2290" height="170" as="geometry" />
        </mxCell>
        <mxCell id="iyyX1s9_e3pjV-plWLvc-3" style="edgeStyle=orthogonalEdgeStyle;rounded=0;orthogonalLoop=1;jettySize=auto;html=1;strokeWidth=4;entryX=0.013;entryY=0.503;entryDx=0;entryDy=0;entryPerimeter=0;" parent="1" source="iA4XpVnBiFOq4aOnz0Fv-34" target="iA4XpVnBiFOq4aOnz0Fv-33" edge="1">
          <mxGeometry relative="1" as="geometry">
            <mxPoint x="435" y="480" as="targetPoint" />
            <Array as="points">
              <mxPoint x="703" y="410" />
              <mxPoint x="703" y="410" />
            </Array>
          </mxGeometry>
        </mxCell>
        <mxCell id="iyyX1s9_e3pjV-plWLvc-4" value="&amp;lt;&amp;lt;JDBC&amp;gt;&amp;gt;" style="edgeLabel;html=1;align=center;verticalAlign=middle;resizable=0;points=[];fontSize=15;" parent="iyyX1s9_e3pjV-plWLvc-3" vertex="1" connectable="0">
          <mxGeometry x="-0.1777" y="3" relative="1" as="geometry">
            <mxPoint x="42" y="7" as="offset" />
          </mxGeometry>
        </mxCell>
        <mxCell id="iA4XpVnBiFOq4aOnz0Fv-34" value="API REST" style="verticalAlign=top;align=left;spacingTop=8;spacingLeft=2;spacingRight=12;shape=cube;size=10;direction=south;fontStyle=4;html=1;whiteSpace=wrap;" parent="1" vertex="1">
          <mxGeometry x="-430" y="130" width="2280" height="260" as="geometry" />
        </mxCell>
        <mxCell id="iA4XpVnBiFOq4aOnz0Fv-33" value="Banco de Dados" style="verticalAlign=top;align=left;spacingTop=8;spacingLeft=2;spacingRight=12;shape=cube;size=10;direction=south;fontStyle=4;html=1;whiteSpace=wrap;" parent="1" vertex="1">
          <mxGeometry x="-430" y="490" width="2280" height="150" as="geometry" />
        </mxCell>
        <mxCell id="iA4XpVnBiFOq4aOnz0Fv-39" style="edgeStyle=orthogonalEdgeStyle;rounded=0;orthogonalLoop=1;jettySize=auto;html=1;exitX=0.5;exitY=1;exitDx=0;exitDy=0;entryX=0.5;entryY=0;entryDx=0;entryDy=0;dashed=1;" parent="1" source="iA4XpVnBiFOq4aOnz0Fv-23" target="iA4XpVnBiFOq4aOnz0Fv-24" edge="1">
          <mxGeometry relative="1" as="geometry" />
        </mxCell>
        <mxCell id="iA4XpVnBiFOq4aOnz0Fv-23" value="ClienteController" style="shape=module;align=center;spacingLeft=20;align=center;verticalAlign=middle;whiteSpace=wrap;html=1;labelPosition=center;verticalLabelPosition=middle;" parent="1" vertex="1">
          <mxGeometry x="339" y="210" width="150" height="50" as="geometry" />
        </mxCell>
        <mxCell id="iA4XpVnBiFOq4aOnz0Fv-30" style="edgeStyle=orthogonalEdgeStyle;rounded=0;orthogonalLoop=1;jettySize=auto;html=1;exitX=0.5;exitY=1;exitDx=0;exitDy=0;dashed=1;entryX=0.5;entryY=0;entryDx=0;entryDy=0;" parent="1" source="iA4XpVnBiFOq4aOnz0Fv-24" target="iA4XpVnBiFOq4aOnz0Fv-27" edge="1">
          <mxGeometry relative="1" as="geometry">
            <Array as="points" />
          </mxGeometry>
        </mxCell>
        <mxCell id="iA4XpVnBiFOq4aOnz0Fv-24" value="ClienteService" style="shape=module;align=center;spacingLeft=20;align=center;verticalAlign=middle;whiteSpace=wrap;html=1;labelPosition=center;verticalLabelPosition=middle;" parent="1" vertex="1">
          <mxGeometry x="344" y="310" width="140" height="50" as="geometry" />
        </mxCell>
        <mxCell id="iA4XpVnBiFOq4aOnz0Fv-25" value="ClienteModel" style="shape=module;align=center;spacingLeft=20;align=center;verticalAlign=middle;whiteSpace=wrap;html=1;labelPosition=center;verticalLabelPosition=middle;" parent="1" vertex="1">
          <mxGeometry x="170" y="310" width="120" height="50" as="geometry" />
        </mxCell>
        <mxCell id="iA4XpVnBiFOq4aOnz0Fv-26" value="ClienteDTO" style="shape=module;align=center;spacingLeft=20;align=center;verticalAlign=middle;whiteSpace=wrap;html=1;labelPosition=center;verticalLabelPosition=middle;" parent="1" vertex="1">
          <mxGeometry x="540" y="310" width="140" height="50" as="geometry" />
        </mxCell>
        <mxCell id="iA4XpVnBiFOq4aOnz0Fv-27" value="ClienteRepository" style="shape=module;align=center;spacingLeft=20;align=center;verticalAlign=middle;whiteSpace=wrap;html=1;labelPosition=center;verticalLabelPosition=middle;" parent="1" vertex="1">
          <mxGeometry x="344" y="540" width="140" height="50" as="geometry" />
        </mxCell>
        <mxCell id="iA4XpVnBiFOq4aOnz0Fv-28" style="edgeStyle=orthogonalEdgeStyle;rounded=0;orthogonalLoop=1;jettySize=auto;html=1;exitX=1;exitY=0.5;exitDx=0;exitDy=0;entryX=0.086;entryY=0.5;entryDx=0;entryDy=0;entryPerimeter=0;dashed=1;" parent="1" source="iA4XpVnBiFOq4aOnz0Fv-24" target="iA4XpVnBiFOq4aOnz0Fv-26" edge="1">
          <mxGeometry relative="1" as="geometry" />
        </mxCell>
        <mxCell id="iA4XpVnBiFOq4aOnz0Fv-37" style="edgeStyle=orthogonalEdgeStyle;rounded=0;orthogonalLoop=1;jettySize=auto;html=1;exitX=1;exitY=0.5;exitDx=0;exitDy=0;entryX=0.057;entryY=0.5;entryDx=0;entryDy=0;entryPerimeter=0;endArrow=none;startFill=1;startArrow=classic;dashed=1;" parent="1" source="iA4XpVnBiFOq4aOnz0Fv-25" target="iA4XpVnBiFOq4aOnz0Fv-24" edge="1">
          <mxGeometry relative="1" as="geometry" />
        </mxCell>
        <mxCell id="iA4XpVnBiFOq4aOnz0Fv-41" style="edgeStyle=orthogonalEdgeStyle;rounded=0;orthogonalLoop=1;jettySize=auto;html=1;exitX=0.5;exitY=1;exitDx=0;exitDy=0;entryX=0.5;entryY=0;entryDx=0;entryDy=0;dashed=1;" parent="1" source="iA4XpVnBiFOq4aOnz0Fv-40" target="iA4XpVnBiFOq4aOnz0Fv-23" edge="1">
          <mxGeometry relative="1" as="geometry" />
        </mxCell>
        <mxCell id="iA4XpVnBiFOq4aOnz0Fv-40" value="Cadastro de Clientes" style="shape=module;align=center;spacingLeft=20;align=center;verticalAlign=middle;whiteSpace=wrap;html=1;labelPosition=center;verticalLabelPosition=middle;" parent="1" vertex="1">
          <mxGeometry x="364" y="-70" width="100" height="50" as="geometry" />
        </mxCell>
        <mxCell id="iZkkSHtkWeeERVJ4zuv6-1" style="edgeStyle=orthogonalEdgeStyle;rounded=0;orthogonalLoop=1;jettySize=auto;html=1;exitX=0.5;exitY=1;exitDx=0;exitDy=0;entryX=0.5;entryY=0;entryDx=0;entryDy=0;dashed=1;" parent="1" source="iZkkSHtkWeeERVJ4zuv6-2" target="iZkkSHtkWeeERVJ4zuv6-3" edge="1">
          <mxGeometry relative="1" as="geometry" />
        </mxCell>
        <mxCell id="iZkkSHtkWeeERVJ4zuv6-18" value="" style="edgeStyle=orthogonalEdgeStyle;rounded=0;orthogonalLoop=1;jettySize=auto;html=1;endArrow=none;startFill=1;startArrow=block;dashed=1;" parent="1" source="iZkkSHtkWeeERVJ4zuv6-2" target="iZkkSHtkWeeERVJ4zuv6-17" edge="1">
          <mxGeometry relative="1" as="geometry" />
        </mxCell>
        <mxCell id="iZkkSHtkWeeERVJ4zuv6-2" value="UsuárioController" style="shape=module;align=center;spacingLeft=20;align=center;verticalAlign=middle;whiteSpace=wrap;html=1;labelPosition=center;verticalLabelPosition=middle;" parent="1" vertex="1">
          <mxGeometry x="-211" y="210" width="150" height="50" as="geometry" />
        </mxCell>
        <mxCell id="iZkkSHtkWeeERVJ4zuv6-16" value="" style="edgeStyle=orthogonalEdgeStyle;rounded=0;orthogonalLoop=1;jettySize=auto;html=1;dashed=1;" parent="1" source="iZkkSHtkWeeERVJ4zuv6-3" target="iZkkSHtkWeeERVJ4zuv6-15" edge="1">
          <mxGeometry relative="1" as="geometry" />
        </mxCell>
        <mxCell id="iZkkSHtkWeeERVJ4zuv6-3" value="UsuárioService" style="shape=module;align=center;spacingLeft=20;align=center;verticalAlign=middle;whiteSpace=wrap;html=1;labelPosition=center;verticalLabelPosition=middle;" parent="1" vertex="1">
          <mxGeometry x="-206" y="310" width="140" height="50" as="geometry" />
        </mxCell>
        <mxCell id="iZkkSHtkWeeERVJ4zuv6-4" value="UsuárioModel" style="shape=module;align=center;spacingLeft=20;align=center;verticalAlign=middle;whiteSpace=wrap;html=1;labelPosition=center;verticalLabelPosition=middle;" parent="1" vertex="1">
          <mxGeometry x="-380" y="310" width="120" height="50" as="geometry" />
        </mxCell>
        <mxCell id="iZkkSHtkWeeERVJ4zuv6-5" value="UsuárioDTO" style="shape=module;align=center;spacingLeft=20;align=center;verticalAlign=middle;whiteSpace=wrap;html=1;labelPosition=center;verticalLabelPosition=middle;" parent="1" vertex="1">
          <mxGeometry x="-10" y="310" width="140" height="50" as="geometry" />
        </mxCell>
        <mxCell id="iZkkSHtkWeeERVJ4zuv6-6" style="edgeStyle=orthogonalEdgeStyle;rounded=0;orthogonalLoop=1;jettySize=auto;html=1;exitX=1;exitY=0.5;exitDx=0;exitDy=0;entryX=0.086;entryY=0.5;entryDx=0;entryDy=0;entryPerimeter=0;dashed=1;" parent="1" source="iZkkSHtkWeeERVJ4zuv6-3" target="iZkkSHtkWeeERVJ4zuv6-5" edge="1">
          <mxGeometry relative="1" as="geometry" />
        </mxCell>
        <mxCell id="iZkkSHtkWeeERVJ4zuv6-7" style="edgeStyle=orthogonalEdgeStyle;rounded=0;orthogonalLoop=1;jettySize=auto;html=1;exitX=1;exitY=0.5;exitDx=0;exitDy=0;entryX=0.057;entryY=0.5;entryDx=0;entryDy=0;entryPerimeter=0;endArrow=none;startFill=1;startArrow=classic;dashed=1;" parent="1" source="iZkkSHtkWeeERVJ4zuv6-4" target="iZkkSHtkWeeERVJ4zuv6-3" edge="1">
          <mxGeometry relative="1" as="geometry" />
        </mxCell>
        <mxCell id="iZkkSHtkWeeERVJ4zuv6-8" style="edgeStyle=orthogonalEdgeStyle;rounded=0;orthogonalLoop=1;jettySize=auto;html=1;exitX=0.5;exitY=1;exitDx=0;exitDy=0;entryX=0.5;entryY=0;entryDx=0;entryDy=0;dashed=1;" parent="1" source="iZkkSHtkWeeERVJ4zuv6-9" target="iZkkSHtkWeeERVJ4zuv6-10" edge="1">
          <mxGeometry relative="1" as="geometry" />
        </mxCell>
        <mxCell id="iZkkSHtkWeeERVJ4zuv6-20" value="" style="edgeStyle=orthogonalEdgeStyle;rounded=0;orthogonalLoop=1;jettySize=auto;html=1;dashed=1;startArrow=block;startFill=1;endArrow=none;" parent="1" edge="1">
          <mxGeometry relative="1" as="geometry">
            <mxPoint x="984" y="211" as="sourcePoint" />
            <mxPoint x="984" y="31" as="targetPoint" />
          </mxGeometry>
        </mxCell>
        <mxCell id="iZkkSHtkWeeERVJ4zuv6-9" value="AutomóveisController" style="shape=module;align=center;spacingLeft=20;align=center;verticalAlign=middle;whiteSpace=wrap;html=1;labelPosition=center;verticalLabelPosition=middle;" parent="1" vertex="1">
          <mxGeometry x="909" y="210" width="150" height="50" as="geometry" />
        </mxCell>
        <mxCell id="iZkkSHtkWeeERVJ4zuv6-22" value="" style="edgeStyle=orthogonalEdgeStyle;rounded=0;orthogonalLoop=1;jettySize=auto;html=1;dashed=1;startArrow=none;startFill=0;endArrow=classic;endFill=1;" parent="1" source="iZkkSHtkWeeERVJ4zuv6-10" target="iZkkSHtkWeeERVJ4zuv6-21" edge="1">
          <mxGeometry relative="1" as="geometry" />
        </mxCell>
        <mxCell id="iZkkSHtkWeeERVJ4zuv6-10" value="AutomóveisService" style="shape=module;align=center;spacingLeft=20;align=center;verticalAlign=middle;whiteSpace=wrap;html=1;labelPosition=center;verticalLabelPosition=middle;" parent="1" vertex="1">
          <mxGeometry x="914" y="310" width="140" height="50" as="geometry" />
        </mxCell>
        <mxCell id="iZkkSHtkWeeERVJ4zuv6-11" value="AutomóveisModel" style="shape=module;align=center;spacingLeft=20;align=center;verticalAlign=middle;whiteSpace=wrap;html=1;labelPosition=center;verticalLabelPosition=middle;" parent="1" vertex="1">
          <mxGeometry x="740" y="310" width="120" height="50" as="geometry" />
        </mxCell>
        <mxCell id="iZkkSHtkWeeERVJ4zuv6-12" value="AutomóveisDTO" style="shape=module;align=center;spacingLeft=20;align=center;verticalAlign=middle;whiteSpace=wrap;html=1;labelPosition=center;verticalLabelPosition=middle;" parent="1" vertex="1">
          <mxGeometry x="1110" y="310" width="140" height="50" as="geometry" />
        </mxCell>
        <mxCell id="iZkkSHtkWeeERVJ4zuv6-13" style="edgeStyle=orthogonalEdgeStyle;rounded=0;orthogonalLoop=1;jettySize=auto;html=1;exitX=1;exitY=0.5;exitDx=0;exitDy=0;entryX=0.086;entryY=0.5;entryDx=0;entryDy=0;entryPerimeter=0;dashed=1;" parent="1" source="iZkkSHtkWeeERVJ4zuv6-10" target="iZkkSHtkWeeERVJ4zuv6-12" edge="1">
          <mxGeometry relative="1" as="geometry" />
        </mxCell>
        <mxCell id="iZkkSHtkWeeERVJ4zuv6-14" style="edgeStyle=orthogonalEdgeStyle;rounded=0;orthogonalLoop=1;jettySize=auto;html=1;exitX=1;exitY=0.5;exitDx=0;exitDy=0;entryX=0.057;entryY=0.5;entryDx=0;entryDy=0;entryPerimeter=0;endArrow=none;startFill=1;startArrow=classic;dashed=1;" parent="1" source="iZkkSHtkWeeERVJ4zuv6-11" target="iZkkSHtkWeeERVJ4zuv6-10" edge="1">
          <mxGeometry relative="1" as="geometry" />
        </mxCell>
        <mxCell id="iZkkSHtkWeeERVJ4zuv6-15" value="&lt;div&gt;&lt;span style=&quot;background-color: transparent; color: light-dark(rgb(0, 0, 0), rgb(255, 255, 255));&quot;&gt;UsuárioRepository&lt;/span&gt;&lt;/div&gt;" style="shape=module;align=center;spacingLeft=20;align=center;verticalAlign=middle;whiteSpace=wrap;html=1;labelPosition=center;verticalLabelPosition=middle;" parent="1" vertex="1">
          <mxGeometry x="-206" y="540" width="140" height="50" as="geometry" />
        </mxCell>
        <mxCell id="iZkkSHtkWeeERVJ4zuv6-17" value="Cadastro/Login de Usuário" style="shape=module;align=center;spacingLeft=20;align=center;verticalAlign=middle;whiteSpace=wrap;html=1;labelPosition=center;verticalLabelPosition=middle;" parent="1" vertex="1">
          <mxGeometry x="-211" y="-70" width="150" height="50" as="geometry" />
        </mxCell>
        <mxCell id="iZkkSHtkWeeERVJ4zuv6-19" value="Cadastro/Aluguel de Automóveis" style="shape=module;align=center;spacingLeft=20;align=center;verticalAlign=middle;whiteSpace=wrap;html=1;labelPosition=center;verticalLabelPosition=middle;" parent="1" vertex="1">
          <mxGeometry x="909" y="-70" width="150" height="50" as="geometry" />
        </mxCell>
        <mxCell id="iZkkSHtkWeeERVJ4zuv6-21" value="AutomóveisRepository" style="shape=module;align=center;spacingLeft=20;align=center;verticalAlign=middle;whiteSpace=wrap;html=1;labelPosition=center;verticalLabelPosition=middle;" parent="1" vertex="1">
          <mxGeometry x="901" y="540" width="166" height="50" as="geometry" />
        </mxCell>
        <mxCell id="KJUw80-6TGWXUCZ8tA97-1" style="edgeStyle=orthogonalEdgeStyle;rounded=0;orthogonalLoop=1;jettySize=auto;html=1;exitX=0.5;exitY=1;exitDx=0;exitDy=0;entryX=0.5;entryY=0;entryDx=0;entryDy=0;dashed=1;" edge="1" parent="1" source="KJUw80-6TGWXUCZ8tA97-3" target="KJUw80-6TGWXUCZ8tA97-5">
          <mxGeometry relative="1" as="geometry" />
        </mxCell>
        <mxCell id="KJUw80-6TGWXUCZ8tA97-2" value="" style="edgeStyle=orthogonalEdgeStyle;rounded=0;orthogonalLoop=1;jettySize=auto;html=1;dashed=1;startArrow=block;startFill=1;endArrow=none;" edge="1" parent="1">
          <mxGeometry relative="1" as="geometry">
            <mxPoint x="1554" y="211" as="sourcePoint" />
            <mxPoint x="1554" y="31" as="targetPoint" />
          </mxGeometry>
        </mxCell>
        <mxCell id="KJUw80-6TGWXUCZ8tA97-3" value="PedidoController" style="shape=module;align=center;spacingLeft=20;align=center;verticalAlign=middle;whiteSpace=wrap;html=1;labelPosition=center;verticalLabelPosition=middle;" vertex="1" parent="1">
          <mxGeometry x="1479" y="210" width="150" height="50" as="geometry" />
        </mxCell>
        <mxCell id="KJUw80-6TGWXUCZ8tA97-4" value="" style="edgeStyle=orthogonalEdgeStyle;rounded=0;orthogonalLoop=1;jettySize=auto;html=1;dashed=1;startArrow=none;startFill=0;endArrow=classic;endFill=1;" edge="1" parent="1" source="KJUw80-6TGWXUCZ8tA97-5" target="KJUw80-6TGWXUCZ8tA97-11">
          <mxGeometry relative="1" as="geometry" />
        </mxCell>
        <mxCell id="KJUw80-6TGWXUCZ8tA97-5" value="PedidoService" style="shape=module;align=center;spacingLeft=20;align=center;verticalAlign=middle;whiteSpace=wrap;html=1;labelPosition=center;verticalLabelPosition=middle;" vertex="1" parent="1">
          <mxGeometry x="1484" y="310" width="140" height="50" as="geometry" />
        </mxCell>
        <mxCell id="KJUw80-6TGWXUCZ8tA97-6" value="PedidoModel" style="shape=module;align=center;spacingLeft=20;align=center;verticalAlign=middle;whiteSpace=wrap;html=1;labelPosition=center;verticalLabelPosition=middle;" vertex="1" parent="1">
          <mxGeometry x="1310" y="310" width="120" height="50" as="geometry" />
        </mxCell>
        <mxCell id="KJUw80-6TGWXUCZ8tA97-7" value="PedidoDTO" style="shape=module;align=center;spacingLeft=20;align=center;verticalAlign=middle;whiteSpace=wrap;html=1;labelPosition=center;verticalLabelPosition=middle;" vertex="1" parent="1">
          <mxGeometry x="1680" y="310" width="140" height="50" as="geometry" />
        </mxCell>
        <mxCell id="KJUw80-6TGWXUCZ8tA97-8" style="edgeStyle=orthogonalEdgeStyle;rounded=0;orthogonalLoop=1;jettySize=auto;html=1;exitX=1;exitY=0.5;exitDx=0;exitDy=0;entryX=0.086;entryY=0.5;entryDx=0;entryDy=0;entryPerimeter=0;dashed=1;" edge="1" parent="1" source="KJUw80-6TGWXUCZ8tA97-5" target="KJUw80-6TGWXUCZ8tA97-7">
          <mxGeometry relative="1" as="geometry" />
        </mxCell>
        <mxCell id="KJUw80-6TGWXUCZ8tA97-9" style="edgeStyle=orthogonalEdgeStyle;rounded=0;orthogonalLoop=1;jettySize=auto;html=1;exitX=1;exitY=0.5;exitDx=0;exitDy=0;entryX=0.057;entryY=0.5;entryDx=0;entryDy=0;entryPerimeter=0;endArrow=none;startFill=1;startArrow=classic;dashed=1;" edge="1" parent="1" source="KJUw80-6TGWXUCZ8tA97-6" target="KJUw80-6TGWXUCZ8tA97-5">
          <mxGeometry relative="1" as="geometry" />
        </mxCell>
        <mxCell id="KJUw80-6TGWXUCZ8tA97-10" value="Cadastro de Pedidos" style="shape=module;align=center;spacingLeft=20;align=center;verticalAlign=middle;whiteSpace=wrap;html=1;labelPosition=center;verticalLabelPosition=middle;" vertex="1" parent="1">
          <mxGeometry x="1479" y="-70" width="150" height="50" as="geometry" />
        </mxCell>
        <mxCell id="KJUw80-6TGWXUCZ8tA97-11" value="PedidoRepository" style="shape=module;align=center;spacingLeft=20;align=center;verticalAlign=middle;whiteSpace=wrap;html=1;labelPosition=center;verticalLabelPosition=middle;" vertex="1" parent="1">
          <mxGeometry x="1471" y="540" width="166" height="50" as="geometry" />
        </mxCell>
      </root>
    </mxGraphModel>
  </diagram>
</mxfile>
